<?xml version="1.0" encoding="UTF-8"?>
<svg xmlns="http://www.w3.org/2000/svg" xmlns:xlink="http://www.w3.org/1999/xlink"
     width="841" height="1189" viewBox="-420.5 -594.5 841 1189">
<defs>
</defs>
<circle cx="0.0" cy="0.0" r="22" fill="red" />
<circle cx="40.83287747106784" cy="-40.652561616198774" r="22" fill="red" />
<circle cx="66.56299923745918" cy="13.540436256053104" r="22" fill="red" />
<circle cx="38.89567902186226" cy="66.11646610550952" r="22" fill="red" />
<circle cx="-17.81973141995215" cy="82.60544364829627" r="22" fill="red" />
<circle cx="-71.1248017054252" cy="57.71308779535264" r="22" fill="red" />
<circle cx="-97.98434736521784" cy="5.55987297606079" r="22" fill="red" />
<circle cx="-90.10677499818016" cy="-52.44476344751521" r="22" fill="red" />
<circle cx="-52.14657785081622" cy="-96.87523959973129" r="22" fill="red" />
<circle cx="3.1819770026747434" cy="-115.43658395024877" r="22" fill="red" />
<circle cx="60.433898463446" cy="-104.46478992300538" r="22" fill="red" />
<circle cx="105.75420164085742" cy="-67.88784770722201" r="22" fill="red" />
<circle cx="129.61231982520735" cy="-14.810580164439626" r="22" fill="red" />
<circle cx="127.93318335663334" cy="43.318151049247284" r="22" fill="red" />
<circle cx="101.91672120807212" cy="95.28818317959119" r="22" fill="red" />
<circle cx="56.96387819413819" cy="132.07744801075984" r="22" fill="red" />
<circle cx="1.134219303995705" cy="148.01903426705914" r="22" fill="red" />
<circle cx="-56.501646866379296" cy="141.2064993290883" r="22" fill="red" />
<circle cx="-107.345050783693" cy="113.26443171851729" r="22" fill="red" />
<circle cx="-144.4176751868071" cy="68.66416046676987" r="22" fill="red" />
<circle cx="-163.09598434842445" cy="13.77656448969011" r="22" fill="red" />
<circle cx="-161.4253503622399" cy="-44.16204649300846" r="22" fill="red" />
<circle cx="-140.06018812252978" cy="-98.02770047586232" r="22" fill="red" />
<circle cx="-101.90903275140714" cy="-141.6271573913848" r="22" fill="red" />
<circle cx="-51.578625214426765" cy="-170.29491961297165" r="22" fill="red" />
<circle cx="5.287743040369171" cy="-181.24401214202075" r="22" fill="red" />
<circle cx="62.6913004465385" cy="-173.67626492117736" r="22" fill="red" />
<circle cx="114.90733963461322" cy="-148.68059110976142" r="22" fill="red" />
<circle cx="157.0109626014601" cy="-108.96258119630522" r="22" fill="red" />
<circle cx="185.26614106086188" cy="-58.45627301395161" r="22" fill="red" />
<circle cx="197.36340067165753" cy="-1.8703316759981112" r="22" fill="red" />
<circle cx="192.5071465499478" cy="55.78256777938674" r="22" fill="red" />
<circle cx="171.36612490950895" cy="109.63121707617115" r="22" fill="red" />
<circle cx="135.90946871383892" cy="155.3332174387324" r="22" fill="red" />
<circle cx="89.15626177564359" cy="189.38106686060286" r="22" fill="red" />
<circle cx="34.86888636921327" cy="209.31371366949645" r="22" fill="red" />
<circle cx="-22.7799316084777" cy="213.82938210220715" r="22" fill="red" />
<circle cx="-79.53893657613274" cy="202.80329029422302" r="22" fill="red" />
<circle cx="-131.38557501564497" cy="177.2201191916925" r="22" fill="red" />
<circle cx="-174.79016958485707" cy="139.0356201945136" r="22" fill="red" />
<circle cx="-206.92397627592257" cy="90.98458060128091" r="22" fill="red" />
<circle cx="-225.80349368399771" cy="36.35361947284209" r="22" fill="red" />
<circle cx="-230.3684828433349" cy="-21.26283995525794" r="22" fill="red" />
<circle cx="-220.49564511649817" cy="-78.20633594532343" r="22" fill="red" />
<circle cx="-196.95361966539866" cy="-130.98291319863768" r="22" fill="red" />
<circle cx="-161.30780560475577" cy="-176.46421021332048" r="22" fill="red" />
<circle cx="-115.78546014884955" cy="-212.0519136021518" r="22" fill="red" />
<circle cx="-63.11260245806112" cy="-235.79957498881362" r="22" fill="red" />
<circle cx="-6.334536751149856" cy="-246.4888711488225" r="22" fill="red" />
<circle cx="51.36859784496302" cy="-243.66022969419353" r="22" fill="red" />
<circle cx="106.86081493742275" cy="-227.6002230671966" r="22" fill="red" />
<circle cx="157.2147736681908" cy="-199.2901737396107" r="22" fill="red" />
<circle cx="199.85444480611167" cy="-160.32196987247508" r="22" fill="red" />
<circle cx="232.67048724709068" cy="-112.78815145507276" r="22" fill="red" />
<circle cx="254.10479259100134" cy="-59.153906993207706" r="22" fill="red" />
<circle cx="263.20252597949457" cy="-2.1187564457083776" r="22" fill="red" />
<circle cx="259.6317279395166" cy="55.524560337953474" r="22" fill="red" />
<circle cx="243.67207942240847" cy="111.0270556796022" r="22" fill="red" />
<circle cx="216.1757241593963" cy="161.8102372358472" r="22" fill="red" />
<circle cx="178.5040603758972" cy="205.57756534106085" r="22" fill="red" />
<circle cx="132.44514570878107" cy="240.40671801780377" r="22" fill="red" />
<circle cx="80.11680713833262" cy="264.8199599523885" r="22" fill="red" />
<circle cx="23.86072627766251" cy="277.8311080133465" r="22" fill="red" />
<circle cx="-33.867296462997736" cy="278.9687248681768" r="22" fill="red" />
<circle cx="-90.60597618300986" cy="268.2762122663081" r="22" fill="red" />
<circle cx="-143.99161231580533" cy="246.29038447205386" r="22" fill="red" />
<circle cx="-191.8517256586954" cy="214.00085751221144" r="22" fill="red" />
<circle cx="-232.28609423707698" cy="172.7931777877121" r="22" fill="red" />
<circle cx="-263.7327761788627" cy="124.37902898819844" r="22" fill="red" />
<circle cx="-285.0174895697788" cy="70.717101369256" r="22" fill="red" />
<circle cx="-295.38549238056805" cy="13.928290871323622" r="22" fill="red" />
<circle cx="-294.5158413193213" cy="-43.7911689839209" r="22" fill="red" />
<circle cx="-282.5185829494453" cy="-100.25523427391879" r="22" fill="red" />
<circle cx="-259.9160247516106" cy="-153.3691333031459" r="22" fill="red" />
<circle cx="-227.60973421567408" cy="-201.20329307870176" r="22" fill="red" />
<circle cx="-186.83531169872145" cy="-242.0578546860054" r="22" fill="red" />
<circle cx="-139.10727350598654" cy="-274.5160212291405" r="22" fill="red" />
<circle cx="-86.15656550339506" cy="-297.4850009084887" r="22" fill="red" />
<circle cx="-29.86330833440211" cy="-310.2238269821359" r="22" fill="red" />
<circle cx="27.812640084046688" cy="-312.35783789539505" r="22" fill="red" />
<circle cx="84.90082120505474" cy="-303.88006934929564" r="22" fill="red" />
<circle cx="139.4867054500329" cy="-285.14023281343145" r="22" fill="red" />
<circle cx="189.77354855698525" cy="-256.8223220946702" r="22" fill="red" />
<circle cx="234.1377975587907" cy="-219.91219400167972" r="22" fill="red" />
<circle cx="271.17659374414296" cy="-175.65670658505195" r="22" fill="red" />
<circle cx="299.74626632589155" cy="-125.51616714576424" r="22" fill="red" />
<circle cx="318.99106595423007" cy="-71.11194279823914" r="22" fill="red" />
<circle cx="328.3617397705831" cy="-14.171121528230717" r="22" fill="red" />
<circle cx="327.6238887357292" cy="43.529914152268475" r="22" fill="red" />
<circle cx="316.8563642410113" cy="100.22121978923742" r="22" fill="red" />
<circle cx="296.44024683766736" cy="154.19267567820646" r="22" fill="red" />
<circle cx="267.03919923353476" cy="203.84354486126526" r="22" fill="red" />
<circle cx="229.57219408263327" cy="247.72692098120731" r="22" fill="red" />
<circle cx="185.17978170592585" cy="284.5880094608237" r="22" fill="red" />
<circle cx="135.18518242716596" cy="313.39542557013317" r="22" fill="red" />
<circle cx="81.05156279052486" cy="333.36494014282255" r="22" fill="red" />
<circle cx="24.336885917737774" cy="343.9753504389508" r="22" fill="red" />
<circle cx="-33.352283861919254" cy="344.97639302891594" r="22" fill="red" />
<circle cx="-90.40668980943252" cy="336.3888414971717" r="22" fill="red" />
<circle cx="-145.25875409205838" cy="318.4971390266151" r="22" fill="red" />
<circle cx="-196.42427093621856" cy="291.83510026744716" r="22" fill="red" />
<circle cx="-242.54041490154955" cy="257.1653750334704" r="22" fill="red" />
<circle cx="-282.39920994979127" cy="215.45349599206364" r="22" fill="red" />
<circle cx="-314.9757704302419" cy="167.8374322534172" r="22" fill="red" />
<circle cx="-339.45079833802737" cy="115.59364014628227" r="22" fill="red" />
<circle cx="-355.22699717213993" cy="60.100641844081025" r="22" fill="red" />
<circle cx="-361.93923670882793" cy="2.801172972737605" r="22" fill="red" />
<circle cx="-359.45847071679407" cy="-54.83607636353193" r="22" fill="red" />
<circle cx="-347.88956727277764" cy="-111.35414426465938" r="22" fill="red" />
<circle cx="-327.5633556348022" cy="-165.3439842416107" r="22" fill="red" />
<circle cx="-299.02332192157843" cy="-215.47832050348305" r="22" fill="red" />
<circle cx="-263.0074960528373" cy="-260.5424333581267" r="22" fill="red" />
</svg>
